<mxfile host="app.diagrams.net" agent="Mozilla/5.0 (Windows NT 10.0; Win64; x64) AppleWebKit/537.36 (KHTML, like Gecko) Chrome/138.0.0.0 Safari/537.36" version="27.2.0">
  <diagram name="Page-1" id="e7e014a7-5840-1c2e-5031-d8a46d1fe8dd">
    <mxGraphModel dx="727" dy="394" grid="1" gridSize="10" guides="1" tooltips="1" connect="1" arrows="1" fold="1" page="1" pageScale="1" pageWidth="1169" pageHeight="826" background="none" math="0" shadow="0">
      <root>
        <mxCell id="0" />
        <mxCell id="1" parent="0" />
        <mxCell id="2" value="Sinh viên" style="swimlane;whiteSpace=wrap" parent="1" vertex="1">
          <mxGeometry x="154.5" y="128" width="290" height="692" as="geometry" />
        </mxCell>
        <mxCell id="5" value="" style="ellipse;shape=startState;fillColor=#000000;strokeColor=#ff0000;" parent="2" vertex="1">
          <mxGeometry x="100" y="40" width="30" height="30" as="geometry" />
        </mxCell>
        <mxCell id="6" value="" style="edgeStyle=elbowEdgeStyle;elbow=horizontal;verticalAlign=bottom;endArrow=open;endSize=8;strokeColor=#FF0000;endFill=1;rounded=0" parent="2" source="5" target="7" edge="1">
          <mxGeometry x="100" y="40" as="geometry">
            <mxPoint x="115" y="110" as="targetPoint" />
          </mxGeometry>
        </mxCell>
        <mxCell id="7" value="Đăng nhập" style="" parent="2" vertex="1">
          <mxGeometry x="70" y="110" width="90" height="30" as="geometry" />
        </mxCell>
        <mxCell id="38" value="" style="ellipse;shape=endState;fillColor=#000000;strokeColor=#ff0000" parent="2" vertex="1">
          <mxGeometry x="100.5" y="636" width="30" height="30" as="geometry" />
        </mxCell>
        <mxCell id="8" value="Thanh toán" style="" parent="2" vertex="1">
          <mxGeometry x="65.5" y="180" width="100" height="30" as="geometry" />
        </mxCell>
        <mxCell id="3" value="Hệ thống" style="swimlane;whiteSpace=wrap" parent="1" vertex="1">
          <mxGeometry x="445" y="128" width="405" height="692" as="geometry" />
        </mxCell>
        <mxCell id="15" value="Xác nhận đăng nhập" style="" parent="3" vertex="1">
          <mxGeometry x="146.25" y="110" width="114.5" height="30" as="geometry" />
        </mxCell>
        <mxCell id="18" value="Hoá đơn thẻ và&#xa;yêu cầu gia hạn&#xa;cần thanh toán" style="" parent="3" vertex="1">
          <mxGeometry x="193.25" y="396" width="128" height="53" as="geometry" />
        </mxCell>
        <mxCell id="16" value="Kiểm tra tài khoản&#xa;hiện có thể dùng thẻ&#xa;tháng không?" style="" parent="3" vertex="1">
          <mxGeometry x="19" y="345" width="120" height="47" as="geometry" />
        </mxCell>
        <mxCell id="ZterCogjY-lKpHSOgGzZ-56" value="" style="rhombus;whiteSpace=wrap;html=1;fontColor=#000000;fillColor=#ffffc0;strokeColor=#ff0000;" parent="3" vertex="1">
          <mxGeometry x="59.5" y="162" width="35.5" height="18" as="geometry" />
        </mxCell>
        <mxCell id="ZterCogjY-lKpHSOgGzZ-62" value="" style="endArrow=open;strokeColor=#FF0000;endFill=1;rounded=0;entryX=0.944;entryY=0.519;entryDx=0;entryDy=0;exitX=0.25;exitY=1;exitDx=0;exitDy=0;entryPerimeter=0;" parent="3" source="15" target="ZterCogjY-lKpHSOgGzZ-56" edge="1">
          <mxGeometry relative="1" as="geometry">
            <mxPoint x="126.74999999999977" y="165" as="sourcePoint" />
            <mxPoint x="125" y="203" as="targetPoint" />
            <Array as="points">
              <mxPoint x="175" y="172" />
            </Array>
          </mxGeometry>
        </mxCell>
        <mxCell id="24" value="" style="endArrow=open;strokeColor=#FF0000;endFill=1;rounded=0;entryX=0.5;entryY=0;entryDx=0;entryDy=0;exitX=0.5;exitY=1;exitDx=0;exitDy=0;" parent="3" source="d__I5m4FkXWMluSIV_10-38" target="d__I5m4FkXWMluSIV_10-40" edge="1">
          <mxGeometry relative="1" as="geometry">
            <mxPoint x="182" y="219" as="sourcePoint" />
            <mxPoint x="353.17999999999984" y="245.89999999999998" as="targetPoint" />
            <Array as="points" />
          </mxGeometry>
        </mxCell>
        <mxCell id="ZterCogjY-lKpHSOgGzZ-72" value="" style="endArrow=open;strokeColor=#FF0000;endFill=1;rounded=0;exitX=0.5;exitY=1;exitDx=0;exitDy=0;entryX=0.473;entryY=0.405;entryDx=0;entryDy=0;entryPerimeter=0;" parent="3" source="18" target="ZterCogjY-lKpHSOgGzZ-81" edge="1">
          <mxGeometry relative="1" as="geometry">
            <mxPoint x="465" y="317" as="sourcePoint" />
            <mxPoint x="-115" y="299" as="targetPoint" />
            <Array as="points" />
          </mxGeometry>
        </mxCell>
        <mxCell id="ZterCogjY-lKpHSOgGzZ-81" value="" style="shape=line;html=1;strokeWidth=6;strokeColor=#ff0000;" parent="3" vertex="1">
          <mxGeometry x="153" y="462" width="220" height="10" as="geometry" />
        </mxCell>
        <mxCell id="ZterCogjY-lKpHSOgGzZ-107" value="" style="rhombus;whiteSpace=wrap;html=1;fontColor=#000000;fillColor=#ffffc0;strokeColor=#ff0000;" parent="3" vertex="1">
          <mxGeometry x="306" y="162" width="35.5" height="18" as="geometry" />
        </mxCell>
        <mxCell id="ZterCogjY-lKpHSOgGzZ-108" value="" style="endArrow=open;strokeColor=#FF0000;endFill=1;rounded=0;entryX=0;entryY=0.5;entryDx=0;entryDy=0;exitX=0.587;exitY=0.961;exitDx=0;exitDy=0;exitPerimeter=0;" parent="3" source="15" target="ZterCogjY-lKpHSOgGzZ-107" edge="1">
          <mxGeometry relative="1" as="geometry">
            <mxPoint x="282" y="192" as="sourcePoint" />
            <mxPoint x="295" y="255" as="targetPoint" />
            <Array as="points">
              <mxPoint x="213" y="171" />
            </Array>
          </mxGeometry>
        </mxCell>
        <mxCell id="ZterCogjY-lKpHSOgGzZ-123" value="Gửi mail báo&#xa;chưa nhận được&#xa;chuyển khoản" style="" parent="3" vertex="1">
          <mxGeometry x="83.25" y="626" width="100" height="50" as="geometry" />
        </mxCell>
        <mxCell id="d__I5m4FkXWMluSIV_10-38" value="Kiểm tra biển số xe&#xa;tài khoản đăng ký có&#xa;dùng thẻ gửi xe không" style="" vertex="1" parent="3">
          <mxGeometry x="8.5" y="222" width="139.5" height="60" as="geometry" />
        </mxCell>
        <mxCell id="d__I5m4FkXWMluSIV_10-40" value="" style="rhombus;whiteSpace=wrap;html=1;fontColor=#000000;fillColor=#ffffc0;strokeColor=#ff0000;" vertex="1" parent="3">
          <mxGeometry x="53.25" y="298" width="50" height="18" as="geometry" />
        </mxCell>
        <mxCell id="d__I5m4FkXWMluSIV_10-41" value="no" style="edgeStyle=orthogonalEdgeStyle;html=1;align=left;verticalAlign=bottom;endArrow=open;endSize=8;strokeColor=#ff0000;rounded=0;entryX=0.5;entryY=0;entryDx=0;entryDy=0;" edge="1" parent="3" source="d__I5m4FkXWMluSIV_10-40" target="18">
          <mxGeometry x="-1" relative="1" as="geometry">
            <mxPoint x="-35" y="392" as="targetPoint" />
          </mxGeometry>
        </mxCell>
        <mxCell id="d__I5m4FkXWMluSIV_10-42" value="yes" style="edgeStyle=orthogonalEdgeStyle;html=1;align=left;verticalAlign=top;endArrow=open;endSize=8;strokeColor=#ff0000;rounded=0;entryX=0.5;entryY=0;entryDx=0;entryDy=0;" edge="1" parent="3" source="d__I5m4FkXWMluSIV_10-40" target="16">
          <mxGeometry x="-1" y="11" relative="1" as="geometry">
            <mxPoint x="340" y="222" as="targetPoint" />
            <mxPoint x="-4" y="-8" as="offset" />
          </mxGeometry>
        </mxCell>
        <mxCell id="d__I5m4FkXWMluSIV_10-43" value="" style="rhombus;whiteSpace=wrap;html=1;fontColor=#000000;fillColor=#ffffc0;strokeColor=#ff0000;" vertex="1" parent="3">
          <mxGeometry x="34" y="414" width="50" height="18" as="geometry" />
        </mxCell>
        <mxCell id="d__I5m4FkXWMluSIV_10-46" value="" style="endArrow=open;strokeColor=#FF0000;endFill=1;rounded=0;entryX=0.5;entryY=0;entryDx=0;entryDy=0;exitX=0.339;exitY=1.004;exitDx=0;exitDy=0;exitPerimeter=0;" edge="1" parent="3" source="16" target="d__I5m4FkXWMluSIV_10-43">
          <mxGeometry relative="1" as="geometry">
            <mxPoint x="115" y="292" as="sourcePoint" />
            <mxPoint x="115" y="308" as="targetPoint" />
            <Array as="points" />
          </mxGeometry>
        </mxCell>
        <mxCell id="d__I5m4FkXWMluSIV_10-44" value="no" style="edgeStyle=orthogonalEdgeStyle;html=1;align=left;verticalAlign=bottom;endArrow=open;endSize=8;strokeColor=#ff0000;rounded=0;entryX=0;entryY=0.5;entryDx=0;entryDy=0;" edge="1" parent="3" source="d__I5m4FkXWMluSIV_10-43" target="18">
          <mxGeometry x="-1" relative="1" as="geometry">
            <mxPoint x="88" y="572" as="targetPoint" />
          </mxGeometry>
        </mxCell>
        <mxCell id="ZterCogjY-lKpHSOgGzZ-82" value="Sửa giá tiền&#xa;thành 0" style="" parent="3" vertex="1">
          <mxGeometry x="15.25" y="573" width="100" height="38" as="geometry" />
        </mxCell>
        <mxCell id="d__I5m4FkXWMluSIV_10-45" value="yes" style="edgeStyle=orthogonalEdgeStyle;html=1;align=left;verticalAlign=top;endArrow=open;endSize=8;strokeColor=#ff0000;rounded=0;entryX=0.408;entryY=0.767;entryDx=0;entryDy=0;entryPerimeter=0;" edge="1" parent="3" source="d__I5m4FkXWMluSIV_10-43" target="d__I5m4FkXWMluSIV_10-60">
          <mxGeometry x="-1" y="11" relative="1" as="geometry">
            <mxPoint x="368" y="412" as="targetPoint" />
            <mxPoint x="-4" y="-8" as="offset" />
          </mxGeometry>
        </mxCell>
        <mxCell id="d__I5m4FkXWMluSIV_10-52" value="Yêu cầu thanh&#xa;toán thẻ xe" style="" vertex="1" parent="3">
          <mxGeometry x="157.25" y="492" width="101.5" height="40" as="geometry" />
        </mxCell>
        <mxCell id="d__I5m4FkXWMluSIV_10-51" value="Yêu cầu gia&#xa;hạn thẻ tháng" style="" vertex="1" parent="3">
          <mxGeometry x="263" y="492" width="110" height="40" as="geometry" />
        </mxCell>
        <mxCell id="d__I5m4FkXWMluSIV_10-53" value="" style="shape=line;html=1;strokeWidth=6;strokeColor=#ff0000;" vertex="1" parent="3">
          <mxGeometry x="153" y="552" width="220" height="10" as="geometry" />
        </mxCell>
        <mxCell id="d__I5m4FkXWMluSIV_10-54" value="" style="endArrow=open;strokeColor=#FF0000;endFill=1;rounded=0;entryX=0.5;entryY=0;entryDx=0;entryDy=0;exitX=0.25;exitY=0.5;exitDx=0;exitDy=0;exitPerimeter=0;" edge="1" parent="3" source="ZterCogjY-lKpHSOgGzZ-81" target="d__I5m4FkXWMluSIV_10-52">
          <mxGeometry relative="1" as="geometry">
            <mxPoint x="494" y="492" as="sourcePoint" />
            <mxPoint x="485" y="684" as="targetPoint" />
          </mxGeometry>
        </mxCell>
        <mxCell id="d__I5m4FkXWMluSIV_10-55" value="" style="endArrow=open;strokeColor=#FF0000;endFill=1;rounded=0;entryX=0.5;entryY=0;entryDx=0;entryDy=0;exitX=0.75;exitY=0.5;exitDx=0;exitDy=0;exitPerimeter=0;" edge="1" parent="3" source="ZterCogjY-lKpHSOgGzZ-81" target="d__I5m4FkXWMluSIV_10-51">
          <mxGeometry relative="1" as="geometry">
            <mxPoint x="534" y="542" as="sourcePoint" />
            <mxPoint x="525" y="734" as="targetPoint" />
          </mxGeometry>
        </mxCell>
        <mxCell id="d__I5m4FkXWMluSIV_10-56" value="" style="endArrow=open;strokeColor=#FF0000;endFill=1;rounded=0;entryX=0.75;entryY=0.5;entryDx=0;entryDy=0;exitX=0.5;exitY=1;exitDx=0;exitDy=0;entryPerimeter=0;" edge="1" parent="3" source="d__I5m4FkXWMluSIV_10-51" target="d__I5m4FkXWMluSIV_10-53">
          <mxGeometry relative="1" as="geometry">
            <mxPoint x="235" y="552" as="sourcePoint" />
            <mxPoint x="235" y="577" as="targetPoint" />
          </mxGeometry>
        </mxCell>
        <mxCell id="d__I5m4FkXWMluSIV_10-58" value="" style="endArrow=open;strokeColor=#FF0000;endFill=1;rounded=0;entryX=0.25;entryY=0.5;entryDx=0;entryDy=0;exitX=0.5;exitY=1;exitDx=0;exitDy=0;entryPerimeter=0;" edge="1" parent="3" source="d__I5m4FkXWMluSIV_10-52" target="d__I5m4FkXWMluSIV_10-53">
          <mxGeometry relative="1" as="geometry">
            <mxPoint x="245" y="562" as="sourcePoint" />
            <mxPoint x="245" y="587" as="targetPoint" />
          </mxGeometry>
        </mxCell>
        <mxCell id="d__I5m4FkXWMluSIV_10-60" value="" style="shape=line;html=1;strokeWidth=6;strokeColor=#ff0000;" vertex="1" parent="3">
          <mxGeometry x="10" y="462" width="120" height="10" as="geometry" />
        </mxCell>
        <mxCell id="d__I5m4FkXWMluSIV_10-61" value="Thẻ tháng" style="" vertex="1" parent="3">
          <mxGeometry x="11.5" y="499" width="59" height="33" as="geometry" />
        </mxCell>
        <mxCell id="d__I5m4FkXWMluSIV_10-62" value="Thẻ khác" style="" vertex="1" parent="3">
          <mxGeometry x="74" y="499" width="56.75" height="33" as="geometry" />
        </mxCell>
        <mxCell id="d__I5m4FkXWMluSIV_10-63" value="" style="endArrow=open;strokeColor=#FF0000;endFill=1;rounded=0;entryX=0.47;entryY=0.091;entryDx=0;entryDy=0;exitX=0.25;exitY=0.5;exitDx=0;exitDy=0;exitPerimeter=0;entryPerimeter=0;" edge="1" parent="3" target="d__I5m4FkXWMluSIV_10-61" source="d__I5m4FkXWMluSIV_10-60">
          <mxGeometry relative="1" as="geometry">
            <mxPoint x="28.25" y="472" as="sourcePoint" />
            <mxPoint x="305.25" y="689" as="targetPoint" />
          </mxGeometry>
        </mxCell>
        <mxCell id="d__I5m4FkXWMluSIV_10-64" value="" style="endArrow=open;strokeColor=#FF0000;endFill=1;rounded=0;entryX=0.5;entryY=0;entryDx=0;entryDy=0;exitX=0.75;exitY=0.5;exitDx=0;exitDy=0;exitPerimeter=0;" edge="1" parent="3" target="d__I5m4FkXWMluSIV_10-62" source="d__I5m4FkXWMluSIV_10-60">
          <mxGeometry relative="1" as="geometry">
            <mxPoint x="138.25" y="472" as="sourcePoint" />
            <mxPoint x="345.25" y="739" as="targetPoint" />
          </mxGeometry>
        </mxCell>
        <mxCell id="d__I5m4FkXWMluSIV_10-65" value="" style="endArrow=open;strokeColor=#FF0000;endFill=1;rounded=0;entryX=0;entryY=0.75;entryDx=0;entryDy=0;exitX=1;exitY=0.5;exitDx=0;exitDy=0;" edge="1" parent="3" source="d__I5m4FkXWMluSIV_10-62" target="18">
          <mxGeometry relative="1" as="geometry">
            <mxPoint x="55.25" y="557" as="sourcePoint" />
            <mxPoint x="138.25" y="562" as="targetPoint" />
            <Array as="points">
              <mxPoint x="145" y="516" />
              <mxPoint x="145" y="436" />
            </Array>
          </mxGeometry>
        </mxCell>
        <mxCell id="d__I5m4FkXWMluSIV_10-66" value="" style="endArrow=open;strokeColor=#FF0000;endFill=1;rounded=0;entryX=0.25;entryY=0;entryDx=0;entryDy=0;exitX=0.5;exitY=1;exitDx=0;exitDy=0;" edge="1" parent="3" source="d__I5m4FkXWMluSIV_10-61" target="ZterCogjY-lKpHSOgGzZ-82">
          <mxGeometry relative="1" as="geometry">
            <mxPoint x="65.25" y="567" as="sourcePoint" />
            <mxPoint x="28.25" y="562" as="targetPoint" />
          </mxGeometry>
        </mxCell>
        <mxCell id="4" value="Quản lý nhà xe" style="swimlane;whiteSpace=wrap" parent="1" vertex="1">
          <mxGeometry x="850" y="128" width="280" height="692" as="geometry" />
        </mxCell>
        <mxCell id="ZterCogjY-lKpHSOgGzZ-103" value="" style="ellipse;shape=startState;fillColor=#000000;strokeColor=#ff0000;" parent="4" vertex="1">
          <mxGeometry x="95.5" y="40" width="30" height="30" as="geometry" />
        </mxCell>
        <mxCell id="ZterCogjY-lKpHSOgGzZ-104" value="Đăng nhập" style="" parent="4" vertex="1">
          <mxGeometry x="65.5" y="110" width="90" height="30" as="geometry" />
        </mxCell>
        <mxCell id="ZterCogjY-lKpHSOgGzZ-105" value="" style="edgeStyle=elbowEdgeStyle;elbow=horizontal;verticalAlign=bottom;endArrow=open;endSize=8;strokeColor=#FF0000;endFill=1;rounded=0;entryX=0.5;entryY=0;entryDx=0;entryDy=0;" parent="4" source="ZterCogjY-lKpHSOgGzZ-103" target="ZterCogjY-lKpHSOgGzZ-104" edge="1">
          <mxGeometry x="-624.5" y="-88" as="geometry">
            <mxPoint x="-364.5" y="142" as="targetPoint" />
            <mxPoint x="-364.5" y="102" as="sourcePoint" />
          </mxGeometry>
        </mxCell>
        <mxCell id="ZterCogjY-lKpHSOgGzZ-111" value="Thông báo" style="" parent="4" vertex="1">
          <mxGeometry x="109.5" y="202" width="80.5" height="28" as="geometry" />
        </mxCell>
        <mxCell id="ZterCogjY-lKpHSOgGzZ-68" value="Xem danh sách&#xa;yêu cầu xác nhận&#xa;thanh toán" style="" parent="4" vertex="1">
          <mxGeometry x="94.75" y="442" width="110" height="50" as="geometry" />
        </mxCell>
        <mxCell id="ZterCogjY-lKpHSOgGzZ-112" value="" style="edgeStyle=elbowEdgeStyle;elbow=horizontal;verticalAlign=bottom;endArrow=open;endSize=8;strokeColor=#FF0000;endFill=1;rounded=0;exitX=0.5;exitY=1;exitDx=0;exitDy=0;entryX=0.5;entryY=0;entryDx=0;entryDy=0;" parent="4" source="ZterCogjY-lKpHSOgGzZ-111" target="ZterCogjY-lKpHSOgGzZ-68" edge="1">
          <mxGeometry x="-1349" y="-216" as="geometry">
            <mxPoint x="165.5" y="192" as="targetPoint" />
            <mxPoint x="165.5" y="152" as="sourcePoint" />
          </mxGeometry>
        </mxCell>
        <mxCell id="ZterCogjY-lKpHSOgGzZ-113" value="Xác nhận thanh toán" style="" parent="4" vertex="1">
          <mxGeometry x="86.5" y="532" width="128" height="28" as="geometry" />
        </mxCell>
        <mxCell id="ZterCogjY-lKpHSOgGzZ-69" value="" style="endArrow=open;strokeColor=#FF0000;endFill=1;rounded=0;exitX=0.5;exitY=1;exitDx=0;exitDy=0;entryX=0.5;entryY=0;entryDx=0;entryDy=0;" parent="4" source="ZterCogjY-lKpHSOgGzZ-68" target="ZterCogjY-lKpHSOgGzZ-113" edge="1">
          <mxGeometry relative="1" as="geometry">
            <mxPoint x="430" y="302" as="sourcePoint" />
            <mxPoint x="150.5" y="352" as="targetPoint" />
            <Array as="points" />
          </mxGeometry>
        </mxCell>
        <mxCell id="ZterCogjY-lKpHSOgGzZ-115" value="" style="rhombus;whiteSpace=wrap;html=1;fontColor=#000000;fillColor=#ffffc0;strokeColor=#ff0000;" parent="4" vertex="1">
          <mxGeometry x="125.5" y="583" width="50" height="18" as="geometry" />
        </mxCell>
        <mxCell id="ZterCogjY-lKpHSOgGzZ-118" value="" style="endArrow=open;strokeColor=#FF0000;endFill=1;rounded=0;entryX=0.5;entryY=0;entryDx=0;entryDy=0;exitX=0.5;exitY=1;exitDx=0;exitDy=0;" parent="4" source="ZterCogjY-lKpHSOgGzZ-113" target="ZterCogjY-lKpHSOgGzZ-115" edge="1">
          <mxGeometry relative="1" as="geometry">
            <mxPoint x="-84.5" y="362" as="sourcePoint" />
            <mxPoint x="-84.5" y="392" as="targetPoint" />
          </mxGeometry>
        </mxCell>
        <mxCell id="9" value="" style="endArrow=open;strokeColor=#FF0000;endFill=1;rounded=0;exitX=1;exitY=0.5;exitDx=0;exitDy=0;entryX=0;entryY=0.5;entryDx=0;entryDy=0;" parent="1" source="7" target="15" edge="1">
          <mxGeometry relative="1" as="geometry" />
        </mxCell>
        <mxCell id="ZterCogjY-lKpHSOgGzZ-66" value="no" style="edgeStyle=orthogonalEdgeStyle;html=1;align=left;verticalAlign=bottom;endArrow=open;endSize=8;strokeColor=#ff0000;rounded=0;exitX=0;exitY=0.5;exitDx=0;exitDy=0;entryX=0.5;entryY=1;entryDx=0;entryDy=0;" parent="1" source="ZterCogjY-lKpHSOgGzZ-56" target="7" edge="1">
          <mxGeometry x="-0.891" y="1" relative="1" as="geometry">
            <mxPoint x="689" y="330" as="targetPoint" />
            <mxPoint x="500" y="363" as="sourcePoint" />
            <mxPoint as="offset" />
          </mxGeometry>
        </mxCell>
        <mxCell id="ZterCogjY-lKpHSOgGzZ-67" value="yes" style="edgeStyle=orthogonalEdgeStyle;html=1;align=left;verticalAlign=top;endArrow=open;endSize=8;strokeColor=#ff0000;rounded=0;exitX=0.5;exitY=1;exitDx=0;exitDy=0;" parent="1" source="ZterCogjY-lKpHSOgGzZ-56" target="8" edge="1">
          <mxGeometry x="-0.7224" relative="1" as="geometry">
            <mxPoint x="802" y="347" as="targetPoint" />
            <mxPoint x="650" y="320" as="sourcePoint" />
            <mxPoint as="offset" />
          </mxGeometry>
        </mxCell>
        <mxCell id="ZterCogjY-lKpHSOgGzZ-75" value="" style="endArrow=open;strokeColor=#FF0000;endFill=1;rounded=0;exitX=0.5;exitY=1;exitDx=0;exitDy=0;entryX=0;entryY=0.5;entryDx=0;entryDy=0;" parent="1" source="8" target="d__I5m4FkXWMluSIV_10-38" edge="1">
          <mxGeometry relative="1" as="geometry">
            <mxPoint x="525" y="531" as="sourcePoint" />
            <mxPoint x="510" y="413" as="targetPoint" />
            <Array as="points">
              <mxPoint x="270" y="380" />
            </Array>
          </mxGeometry>
        </mxCell>
        <mxCell id="ZterCogjY-lKpHSOgGzZ-106" value="" style="endArrow=open;strokeColor=#FF0000;endFill=1;rounded=0;exitX=0;exitY=0.5;exitDx=0;exitDy=0;entryX=1;entryY=0.5;entryDx=0;entryDy=0;" parent="1" source="ZterCogjY-lKpHSOgGzZ-104" target="15" edge="1">
          <mxGeometry relative="1" as="geometry">
            <mxPoint x="520" y="270" as="sourcePoint" />
            <mxPoint x="723" y="270" as="targetPoint" />
          </mxGeometry>
        </mxCell>
        <mxCell id="ZterCogjY-lKpHSOgGzZ-109" value="no" style="edgeStyle=orthogonalEdgeStyle;html=1;align=left;verticalAlign=bottom;endArrow=open;endSize=8;strokeColor=#ff0000;rounded=0;exitX=1;exitY=0.5;exitDx=0;exitDy=0;entryX=0.5;entryY=1;entryDx=0;entryDy=0;" parent="1" source="ZterCogjY-lKpHSOgGzZ-107" target="ZterCogjY-lKpHSOgGzZ-104" edge="1">
          <mxGeometry x="-1" relative="1" as="geometry">
            <mxPoint x="450" y="320" as="targetPoint" />
            <mxPoint x="670" y="415" as="sourcePoint" />
          </mxGeometry>
        </mxCell>
        <mxCell id="ZterCogjY-lKpHSOgGzZ-110" value="yes" style="edgeStyle=orthogonalEdgeStyle;html=1;align=left;verticalAlign=top;endArrow=open;endSize=8;strokeColor=#ff0000;rounded=0;exitX=0.5;exitY=1;exitDx=0;exitDy=0;entryX=0;entryY=0.5;entryDx=0;entryDy=0;" parent="1" source="ZterCogjY-lKpHSOgGzZ-107" target="ZterCogjY-lKpHSOgGzZ-111" edge="1">
          <mxGeometry x="-0.7224" relative="1" as="geometry">
            <mxPoint x="800" y="350" as="targetPoint" />
            <mxPoint x="820" y="372" as="sourcePoint" />
            <mxPoint as="offset" />
          </mxGeometry>
        </mxCell>
        <mxCell id="ZterCogjY-lKpHSOgGzZ-122" value="" style="endArrow=open;strokeColor=#FF0000;endFill=1;rounded=0;exitX=0;exitY=0.5;exitDx=0;exitDy=0;entryX=0.5;entryY=0.2;entryDx=0;entryDy=0;entryPerimeter=0;" parent="1" source="ZterCogjY-lKpHSOgGzZ-82" target="38" edge="1">
          <mxGeometry relative="1" as="geometry">
            <mxPoint x="320" y="410" as="sourcePoint" />
            <mxPoint x="565" y="442" as="targetPoint" />
            <Array as="points">
              <mxPoint x="270" y="720" />
            </Array>
          </mxGeometry>
        </mxCell>
        <mxCell id="ZterCogjY-lKpHSOgGzZ-124" value="" style="endArrow=open;strokeColor=#FF0000;endFill=1;rounded=0;exitX=0;exitY=0.5;exitDx=0;exitDy=0;entryX=1;entryY=0.5;entryDx=0;entryDy=0;" parent="1" source="ZterCogjY-lKpHSOgGzZ-123" target="38" edge="1">
          <mxGeometry relative="1" as="geometry">
            <mxPoint x="750" y="600" as="sourcePoint" />
            <mxPoint x="510" y="645" as="targetPoint" />
            <Array as="points" />
          </mxGeometry>
        </mxCell>
        <mxCell id="d__I5m4FkXWMluSIV_10-57" value="yes" style="edgeStyle=orthogonalEdgeStyle;html=1;align=left;verticalAlign=top;endArrow=open;endSize=8;strokeColor=#ff0000;rounded=0;exitX=0;exitY=0.5;exitDx=0;exitDy=0;entryX=1;entryY=0.5;entryDx=0;entryDy=0;" edge="1" parent="1" source="ZterCogjY-lKpHSOgGzZ-115" target="ZterCogjY-lKpHSOgGzZ-82">
          <mxGeometry x="-0.829" relative="1" as="geometry">
            <mxPoint x="630" y="781" as="targetPoint" />
            <mxPoint as="offset" />
            <mxPoint x="630" y="640" as="sourcePoint" />
          </mxGeometry>
        </mxCell>
        <mxCell id="d__I5m4FkXWMluSIV_10-59" value="" style="endArrow=open;strokeColor=#FF0000;endFill=1;rounded=0;entryX=0;entryY=0.75;entryDx=0;entryDy=0;exitX=0.976;exitY=0.517;exitDx=0;exitDy=0;exitPerimeter=0;" edge="1" parent="1" source="d__I5m4FkXWMluSIV_10-53" target="ZterCogjY-lKpHSOgGzZ-111">
          <mxGeometry relative="1" as="geometry">
            <mxPoint x="810" y="660" as="sourcePoint" />
            <mxPoint x="810" y="685" as="targetPoint" />
            <Array as="points">
              <mxPoint x="830" y="685" />
              <mxPoint x="830" y="350" />
            </Array>
          </mxGeometry>
        </mxCell>
        <mxCell id="d__I5m4FkXWMluSIV_10-67" value="no" style="edgeStyle=orthogonalEdgeStyle;html=1;align=left;verticalAlign=bottom;endArrow=open;endSize=8;strokeColor=#ff0000;rounded=0;entryX=1;entryY=0.5;entryDx=0;entryDy=0;exitX=0.5;exitY=1;exitDx=0;exitDy=0;" edge="1" parent="1" source="ZterCogjY-lKpHSOgGzZ-115" target="ZterCogjY-lKpHSOgGzZ-123">
          <mxGeometry x="-0.9005" relative="1" as="geometry">
            <mxPoint x="679" y="580" as="targetPoint" />
            <mxPoint x="570" y="580" as="sourcePoint" />
            <mxPoint as="offset" />
          </mxGeometry>
        </mxCell>
      </root>
    </mxGraphModel>
  </diagram>
</mxfile>
